<svg width="22" height="21" viewBox="0 0 22 21" fill="none" xmlns="http://www.w3.org/2000/svg">
<g id="Frame" opacity="0.5">
<path id="Vector" d="M11.5 1.75C6.67525 1.75 2.75 5.67525 2.75 10.5C2.75 15.3248 6.67525 19.25 11.5 19.25C16.3248 19.25 20.25 15.3248 20.25 10.5C20.25 5.67525 16.3248 1.75 11.5 1.75ZM11.5 17.5C7.64038 17.5 4.5 14.3596 4.5 10.5C4.5 6.64038 7.64038 3.5 11.5 3.5C15.3596 3.5 18.5 6.64038 18.5 10.5C18.5 14.3596 15.3596 17.5 11.5 17.5Z" fill="#1B1A57"/>
<path id="Vector_2" d="M13.9749 12.9741C13.655 13.2929 13.2773 13.5477 12.8619 13.7248C12.114 14.0405 11.2797 14.0866 10.5016 13.8552C9.72351 13.6238 9.05 13.1292 8.59626 12.4561L7.14551 13.4352C7.52389 13.9935 8.00528 14.4746 8.56388 14.8527C9.13233 15.2371 9.77102 15.5056 10.4434 15.6428C11.1406 15.785 11.8593 15.785 12.5565 15.6428C13.2288 15.5054 13.8675 15.2369 14.436 14.8527C14.7099 14.6672 14.9715 14.4519 15.2113 14.2131C15.4493 13.9759 15.6663 13.7134 15.8535 13.4352L14.4028 12.4561C14.277 12.642 14.1337 12.8154 13.9749 12.9741Z" fill="#1B1A57"/>
<path id="Vector_3" d="M14.5564 10.4878C15.2779 10.4878 15.8628 9.90287 15.8628 9.18138C15.8628 8.45988 15.2779 7.875 14.5564 7.875C13.8349 7.875 13.25 8.45988 13.25 9.18138C13.25 9.90287 13.8349 10.4878 14.5564 10.4878Z" fill="#1B1A57"/>
<path id="Vector_4" d="M8.4375 10.5C9.16237 10.5 9.75 9.91237 9.75 9.1875C9.75 8.46263 9.16237 7.875 8.4375 7.875C7.71263 7.875 7.125 8.46263 7.125 9.1875C7.125 9.91237 7.71263 10.5 8.4375 10.5Z" fill="#1B1A57"/>
</g>
</svg>
